<?xml version="1.0" standalone="yes"?>
<svg xmlns="http://www.w3.org/2000/svg" width="420" height="420">
<path style="fill:#030303; stroke:none;" d="M0 0L0 420L420 420L420 0L0 0z"/>
<path style="fill:#c9b7b7; stroke:none;" d="M69 15.4391C42.8729 19.5196 25.7171 36.6226 22.2894 63C19.103 87.5197 22 114.263 22 139L22 292C22 319.483 14.7874 359.093 31.2207 383C49.7495 409.956 84.5758 405 113 405L274 405C299.552 405 328.907 408.995 354 404.195C379.365 399.343 396.221 382.089 398.829 356C401.344 330.847 399 304.287 399 279L399 125C399 97.613 406.183 58.1774 388.319 35C368.655 9.48596 333.371 15 305 15L147 15C121.833 15 93.8535 11.5574 69 15.4391z"/>
<path style="fill:#ffffff; stroke:none;" d="M42 25L43 26L42 25M378 25L379 26L378 25M32 35L33 36L32 35M388 35L389 36L388 35z"/>
<path style="fill:#685e5e; stroke:none;" d="M242 53L242 56L243 56L242 53z"/>
<path style="fill:#030303; stroke:none;" d="M243 53L258 177C243.941 170.973 234.087 168.34 219 174C216.321 162.747 217 149.558 217 138C217 115.351 216.272 96.3895 227 76L170 76C171.873 79.7058 175.593 82.0841 177.106 86.0038C179.836 93.0726 178.578 102.536 179.09 110C180.161 125.642 181 141.294 181 157C181 164.56 183.612 178.165 179.972 184.91C174.766 194.559 153.478 205.138 143 207L141 135L141.573 100L148 89L129 89L87 89L98.1458 103L99.0895 131L102 213C92.7883 212.522 83.5446 206.258 76 201.304C73.6107 199.735 68.1105 196.783 69.2068 193.181C70.9727 187.379 81.666 186.194 85 181L58 187C60.0386 198.472 68.7774 210.442 79 215.88C85.2395 219.2 97.2361 221.815 100.972 228.21C103.167 231.967 101.791 237.807 102.285 242C103.898 255.665 105.707 280.535 99.3156 293C95.7964 299.864 86.2089 302.111 84 309L155 313C152.306 308.756 147.05 306.78 145.009 301.961C138.912 287.564 143 264.411 143 249C143 242.894 140.494 229.58 144.028 224.434C146.174 221.308 152.62 221.131 156 219.996C164.961 216.986 172.788 212.554 181 208C181.084 238.454 184.683 268.524 180.711 299C179.688 306.846 176.655 313.354 170.989 318.91C169.358 320.51 164.713 323.568 166.327 326.411C168.392 330.048 178.653 327.044 182 327.004C197.484 326.82 218.376 333.695 233 330L233 328C220.855 320.975 218.064 307.152 218.001 294C217.882 269.335 218 244.666 218 220C218 211.478 214.592 193.588 219.028 186.225C221.912 181.436 238.944 175.637 242.825 181.318C248.355 189.411 247.514 206.453 249.08 216C251.263 229.306 251.098 244.159 255 257L243 250L265 385L266 385L270.91 332L273 301L274 301C276.625 307.306 279.907 317.542 286 321L286 233L299 256L300 256C300 210.007 295 164.188 295 118C295 102.572 289.229 82.7563 308 79.2608C310.424 78.8094 313.516 77.9002 315.942 78.6929C322.769 80.9232 322.006 97.0975 322.715 103C325.077 122.689 326 143.187 326 163C326 171.471 327.332 180.099 321.37 186.961C313.284 196.269 307.829 175.613 298 178C301.237 184.843 308.114 199.906 314.529 203.968C317.943 206.129 323.493 203.797 327 202.849C336.789 200.201 351.984 195.853 356.972 185.996C359.682 180.641 358.649 170.993 359.089 165C360.214 149.654 368.05 125.674 362.863 111C359.322 100.983 349.599 92.0374 342.919 84C338.243 78.3741 331.26 65.8136 323.996 63.6968C317.054 61.6737 302.628 69.4623 296 72L295 54L243 53z"/>
<path style="fill:#685e5e; stroke:none;" d="M254 53L254 54L266 54L254 53z"/>
<path style="fill:#b0a0a0; stroke:none;" d="M266 53L266 54L274 54L266 53M282 53L282 54L296 54L298 71L295.397 54.0278L282 53z"/>
<path style="fill:#685e5e; stroke:none;" d="M273 54L273 55L283 55L273 54M295 54L295 71L296 71L295 54z"/>
<path style="fill:#b0a0a0; stroke:none;" d="M242 56L245 81L246 81L242 56z"/>
<path style="fill:#685e5e; stroke:none;" d="M243 57L243 64L244 64L243 57z"/>
<path style="fill:#b0a0a0; stroke:none;" d="M314 64L314 65L323.999 63.213L335.844 75L362 108C361.802 102.114 355.019 96.3323 351.414 92C341.666 80.2867 331.109 57.4114 314 64z"/>
<path style="fill:#685e5e; stroke:none;" d="M321 62L321 63L325 63L321 62M318 63L318 64L321 64L318 63M325 63L326 64L325 63M316.667 64.3333L317.333 64.6667L316.667 64.3333M326 64L327 65L326 64M244 65L244 71L245 71L244 65z"/>
<path style="fill:#b0a0a0; stroke:none;" d="M311 65L312 66L311 65z"/>
<path style="fill:#685e5e; stroke:none;" d="M312 65L312 66L315 66L312 65M327 65L328 66L327 65z"/>
<path style="fill:#b0a0a0; stroke:none;" d="M308 66L309 67L308 66z"/>
<path style="fill:#685e5e; stroke:none;" d="M305 68L305 69L312 67L305 68M328 66L329 67L328 66z"/>
<path style="fill:#b0a0a0; stroke:none;" d="M305.667 67.3333L306.333 67.6667L305.667 67.3333z"/>
<path style="fill:#685e5e; stroke:none;" d="M329 67L330 68L329 67z"/>
<path style="fill:#b0a0a0; stroke:none;" d="M299 69L299 70L305 69L299 69z"/>
<path style="fill:#685e5e; stroke:none;" d="M330.333 68.6667L330.667 69.3333L330.333 68.6667M302.667 69.3333L303.333 69.6667L302.667 69.3333M298 70L298 71L301 71L298 70M331 70L332 71L331 70M296 71L297 72L296 71M332 71L333 72L332 71M245 72L245 77L246 77L245 72M333 72L334 73L333 72M334 73L335 74L334 73z"/>
<path style="fill:#b0a0a0; stroke:none;" d="M169 76L172 75L169 76M221 74L221 75L228 75L223 85C228.589 79.6207 230.222 74.1093 221 74z"/>
<path style="fill:#685e5e; stroke:none;" d="M335 74L338 78L335 74M170 75L170 76L227 76L225 80L228 75L170 75z"/>
<path style="fill:#b0a0a0; stroke:none;" d="M173 75L173 76L189 76L173 75M203 75L203 76L219 76L203 75z"/>
<path style="fill:#685e5e; stroke:none;" d="M169 76L170 77L169 76z"/>
<path style="fill:#b0a0a0; stroke:none;" d="M169 77L175 85L176 85L169 77z"/>
<path style="fill:#685e5e; stroke:none;" d="M170 78L171 79L170 78M246 78L249 108L250 108L246 78M306 79L306 80L317.436 80.618L320.285 93L323 124C326.836 114.859 322.132 100.594 321.169 91C320.808 87.4034 321.37 82.3265 318.436 79.6042C315.416 76.8013 309.67 78.8424 306 79M338 78L339 79L338 78M171 79L172 80L171 79z"/>
<path style="fill:#b0a0a0; stroke:none;" d="M301 81L301 82C306.124 81.5956 314.757 78.0552 318 83C319.514 76.2591 304.62 80.5421 301 81z"/>
<path style="fill:#685e5e; stroke:none;" d="M339 79L340 80L339 79M172.667 80.3333L173.333 80.6667L172.667 80.3333M224.333 80.6667L224.667 81.3333L224.333 80.6667M302 80L302 81L305 81L302 80z"/>
<path style="fill:#c9b7b7; stroke:none;" d="M297 83L297 176C305.837 175.476 311.07 183.529 316 190L318 190C325.763 179.477 324 168.599 324 156C324 130.899 322.591 104.731 318 80L297 83z"/>
<path style="fill:#685e5e; stroke:none;" d="M340 80L342 83L340 80M174 81L175 82L174 81M298 81L298 82L301 82L298 81M175 82L176 83L175 82M223.333 82.6667L223.667 83.3333L223.333 82.6667M296 82L295 118L296 197L297 197L296 178L299 180L299 177C293.315 173.314 296 159.204 296 153C296 130.274 299.487 104.346 296 82z"/>
<path style="fill:#b0a0a0; stroke:none;" d="M297 82L297 83L300 83L297 82z"/>
<path style="fill:#685e5e; stroke:none;" d="M176 83L177 96L178 96L176 83z"/>
<path style="fill:#b0a0a0; stroke:none;" d="M296 83L296 177L304 177L304 176L297 176L297 112L296 83z"/>
<path style="fill:#685e5e; stroke:none;" d="M342 83L343 84L342 83M222 84L218 101L219 101L222 84z"/>
<path style="fill:#b0a0a0; stroke:none;" d="M319 84L319 93L320 93L319 84z"/>
<path style="fill:#685e5e; stroke:none;" d="M343 84L344 85L343 84z"/>
<path style="fill:#b0a0a0; stroke:none;" d="M246 85L246 88L247 88L246 85z"/>
<path style="fill:#685e5e; stroke:none;" d="M344 85L345 86L344 85z"/>
<path style="fill:#b0a0a0; stroke:none;" d="M176 86L176 95L177 95L176 86M222 86L223 87L222 86M125 87L125 88L149 88L144 96C159.4 84.7809 131.681 87 125 87z"/>
<path style="fill:#685e5e; stroke:none;" d="M345 87L346 88L345 87z"/>
<path style="fill:#b0a0a0; stroke:none;" d="M86 88C85.1291 93.8485 92.7943 97.4622 96 102L97 102C94.9346 96.7135 91.3731 93.7169 86 92L88 89L86 88z"/>
<path style="fill:#685e5e; stroke:none;" d="M88.6667 88.3333L89.3333 88.6667L88.6667 88.3333z"/>
<path style="fill:#b0a0a0; stroke:none;" d="M90 88L90 89L122 89L90 88z"/>
<path style="fill:#685e5e; stroke:none;" d="M122 88L122 89L142 89L122 88M147 88L147 92L148 92L147 88z"/>
<path style="fill:#b0a0a0; stroke:none;" d="M221 88L222 89L221 88z"/>
<path style="fill:#685e5e; stroke:none;" d="M346 88L347 89L346 88M86 89L88 92L86 89M99 89L99 90L106 90L99 89M347 89L348 90L347 89z"/>
<path style="fill:#b0a0a0; stroke:none;" d="M220.333 90.6667L220.667 91.3333L220.333 90.6667z"/>
<path style="fill:#685e5e; stroke:none;" d="M348 90L349 91L348 90M349.333 91.6667L349.667 92.3333L349.333 91.6667M88.6667 92.3333L89.3333 92.6667L88.6667 92.3333M146 92L147 93L146 92M90 93L91 94L90 93M145 93L146 94L145 93z"/>
<path style="fill:#b0a0a0; stroke:none;" d="M219 93L219 99L220 99L219 93z"/>
<path style="fill:#685e5e; stroke:none;" d="M350 93L351 94L350 93M91.6667 94.3333L92.3333 94.6667L91.6667 94.3333M144 94L145 95L144 94z"/>
<path style="fill:#b0a0a0; stroke:none;" d="M320 94L320 100L321 100L320 94z"/>
<path style="fill:#685e5e; stroke:none;" d="M351 94L352 95L351 94M93 95L94 96L93 95M143 95L142 98L143 95M352 95L353 96L352 95M94 96L95 97L94 96z"/>
<path style="fill:#b0a0a0; stroke:none;" d="M177 96L177 110L178 110L177 96M247 96L247 100L248 100L247 96z"/>
<path style="fill:#685e5e; stroke:none;" d="M353 96L354 97L353 96M95.3333 97.6667L95.6667 98.3333L95.3333 97.6667z"/>
<path style="fill:#b0a0a0; stroke:none;" d="M143 97L144 98L143 97z"/>
<path style="fill:#685e5e; stroke:none;" d="M178 97L178 111L179 111L178 97M354.333 97.6667L354.667 98.3333L354.333 97.6667z"/>
<path style="fill:#b0a0a0; stroke:none;" d="M142 98L142 176L143 176L143 122L142 98z"/>
<path style="fill:#685e5e; stroke:none;" d="M96 99L97 100L96 99M141 99L141 172L142 172L142 122L141 99M355 99L356 100L355 99M97 100L100 190L101 190C101 169.248 99.5214 148.683 99.0147 128C98.8099 119.643 101.416 107.373 97 100M356 100L357 101L356 100z"/>
<path style="fill:#b0a0a0; stroke:none;" d="M218 101L218 170L219 170L219 123L218 101z"/>
<path style="fill:#685e5e; stroke:none;" d="M357 101L358 102L357 101z"/>
<path style="fill:#b0a0a0; stroke:none;" d="M248 102L248 107L249 107L248 102M321 102L321 108L322 108L321 102z"/>
<path style="fill:#685e5e; stroke:none;" d="M358.333 102.667L358.667 103.333L358.333 102.667z"/>
<path style="fill:#b0a0a0; stroke:none;" d="M97 103L97 123L98 123L97 103z"/>
<path style="fill:#685e5e; stroke:none;" d="M359 104L360 105L359 104M360.333 105.667L360.667 106.333L360.333 105.667M217 106L217 156L218 156C218 141.951 222.409 118.89 217 106M361 107L362 108L361 107z"/>
<path style="fill:#b0a0a0; stroke:none;" d="M249 108L249 114L250 114L249 108z"/>
<path style="fill:#685e5e; stroke:none;" d="M362 108L363 113L364 113L362 108z"/>
<path style="fill:#b0a0a0; stroke:none;" d="M363 109L364 110L363 109z"/>
<path style="fill:#685e5e; stroke:none;" d="M250 110L250 115L251 115L250 110z"/>
<path style="fill:#b0a0a0; stroke:none;" d="M178 111C178 128.694 179 146.276 179 164C179 173.009 180.441 181.443 175 189C181.78 184.761 180 177.129 180 170C180 155.61 180.071 141.329 179.09 127C178.734 121.806 180.035 115.85 178 111M322 112L322 120L323 120L322 112z"/>
<path style="fill:#685e5e; stroke:none;" d="M179 113L179 131L180 131L179 113z"/>
<path style="fill:#b0a0a0; stroke:none;" d="M250 115L251 126L252 126L250 115z"/>
<path style="fill:#685e5e; stroke:none;" d="M251 117L251 121L252 121L251 117M363 117L363 128L364 128L363 117M252 124L252 132L253 132L252 124z"/>
<path style="fill:#b0a0a0; stroke:none;" d="M323 124L323 140L324 140L323 124z"/>
<path style="fill:#685e5e; stroke:none;" d="M324 125L324 148L325 148L324 125z"/>
<path style="fill:#b0a0a0; stroke:none;" d="M363 128L363 133L364 133L363 128M252 132L252 136L253 136L252 132z"/>
<path style="fill:#685e5e; stroke:none;" d="M362 132L362 140L363 140L362 132z"/>
<path style="fill:#b0a0a0; stroke:none;" d="M98 134L98 149L99 149L98 134z"/>
<path style="fill:#685e5e; stroke:none;" d="M253 134L257 176L244 170L244 171L258 177C258 163.928 258.429 146.093 253 134M180 136L180 186L181 186C181 171.951 185.409 148.89 180 136z"/>
<path style="fill:#b0a0a0; stroke:none;" d="M253 140L253 145L254 145L253 140M362 140L362 145L363 145L362 140z"/>
<path style="fill:#685e5e; stroke:none;" d="M361 141L358.285 173L356.972 184.999L348 195C351.791 192.809 355.94 190.044 357.972 185.999C359.64 182.681 358.829 178.578 359.17 175C360.081 165.426 364.771 149.986 361 141z"/>
<path style="fill:#b0a0a0; stroke:none;" d="M254 147L254 153L255 153L254 147M324 148L324 181L325 181L324 148z"/>
<path style="fill:#685e5e; stroke:none;" d="M325 151L325 181L326 181L325 151z"/>
<path style="fill:#b0a0a0; stroke:none;" d="M361 151L361 158L362 158L361 151M255 154L255 160L256 160L255 154M99 160L99 180L100 180L99 160M360 162L360 169L361 169L360 162M256 163L256 173L257 173L256 163M239.667 168.333L240.333 168.667L239.667 168.333M231 169L231 170L236 170L231 169z"/>
<path style="fill:#685e5e; stroke:none;" d="M236 169L236 170L243 170L236 169z"/>
<path style="fill:#b0a0a0; stroke:none;" d="M243 169L243 170L246 170L243 169z"/>
<path style="fill:#685e5e; stroke:none;" d="M218 170L219 174L224 173L224 172L218 170z"/>
<path style="fill:#b0a0a0; stroke:none;" d="M226 170L226 171L229 171L226 170z"/>
<path style="fill:#685e5e; stroke:none;" d="M229 170L229 171L236 171L229 170z"/>
<path style="fill:#b0a0a0; stroke:none;" d="M246.667 170.333L247.333 170.667L246.667 170.333M221 171L221 172L225 172L221 171z"/>
<path style="fill:#685e5e; stroke:none;" d="M225 171L225 172L229 172L225 171z"/>
<path style="fill:#b0a0a0; stroke:none;" d="M248.667 171.333L249.333 171.667L248.667 171.333M219 172L220 173L219 172M251 172L252 173L251 172M359 172L359 186L360 186L359 172M252.667 173.333L253.333 173.667L252.667 173.333M254.667 174.333L255.333 174.667L254.667 174.333M256 175L257 176L256 175z"/>
<path style="fill:#685e5e; stroke:none;" d="M142 176L142 199L143 199L142 176M300 176L300 177L303 177L300 176M303 177L303 178C310.633 184.625 320.074 199.082 325 181L324 181L316 191L303 177z"/>
<path style="fill:#b0a0a0; stroke:none;" d="M305 177L306 178L305 177M296 178L299 181L296 178M306.333 178.667L306.667 179.333L306.333 178.667M83 179L83 180L87 182L83 179z"/>
<path style="fill:#685e5e; stroke:none;" d="M227 181L227 182C233.192 180.723 241.621 177.352 243 186C246.91 175.903 231.954 179.608 227 181z"/>
<path style="fill:#b0a0a0; stroke:none;" d="M68 182L68 183L82 181L68 182z"/>
<path style="fill:#685e5e; stroke:none;" d="M82 180L82 181L85 181L82 180z"/>
<path style="fill:#b0a0a0; stroke:none;" d="M143 180L143 200L144 200L143 180M233 180L233 181L236 181L233 180M241 180L242 181L241 180M307 180L308 181L307 180z"/>
<path style="fill:#685e5e; stroke:none;" d="M77 181L77 182L81 182L77 181M85 181C78.4241 187.782 59.5725 192.05 75 201L68 193C72.2968 190.994 85.1297 186.259 85 181z"/>
<path style="fill:#b0a0a0; stroke:none;" d="M229.667 181.333L230.333 181.667L229.667 181.333M242 181L242 186L243 186L242 181z"/>
<path style="fill:#685e5e; stroke:none;" d="M299 181L300 182L299 181z"/>
<path style="fill:#b0a0a0; stroke:none;" d="M308 181L309 182L308 181z"/>
<path style="fill:#685e5e; stroke:none;" d="M72 182L72 183L75 183L72 182M224.667 182.333L225.333 182.667L224.667 182.333z"/>
<path style="fill:#b0a0a0; stroke:none;" d="M226 182L227 183L226 182z"/>
<path style="fill:#685e5e; stroke:none;" d="M300 182C301.894 187.722 309.819 204.24 316.093 205.643C321.535 206.86 328.722 203.21 334 202L334 201L316.185 204.306L300 182z"/>
<path style="fill:#b0a0a0; stroke:none;" d="M309 182L310 183L309 182M323.333 182.667L323.667 183.333L323.333 182.667M57 186L57 187L66 184L57 186z"/>
<path style="fill:#685e5e; stroke:none;" d="M66 183L66 184L70 184L66 183z"/>
<path style="fill:#b0a0a0; stroke:none;" d="M85 183L86 184L85 183z"/>
<path style="fill:#685e5e; stroke:none;" d="M221.667 183.333L222.333 183.667L221.667 183.333z"/>
<path style="fill:#b0a0a0; stroke:none;" d="M223.667 183.333L224.333 183.667L223.667 183.333M310 183L311 184L310 183z"/>
<path style="fill:#685e5e; stroke:none;" d="M63.6667 184.333L64.3333 184.667L63.6667 184.333z"/>
<path style="fill:#b0a0a0; stroke:none;" d="M83.6667 184.333L84.3333 184.667L83.6667 184.333z"/>
<path style="fill:#685e5e; stroke:none;" d="M219 184C215.642 195.36 218 210.167 218 222C218 246.975 217.403 272.033 218.015 297C218.299 308.622 220.945 323.327 233 328L233 330L229 331L229 332L234 328C218.143 317.163 219 299.419 219 282L219 216C219 205.74 220.57 194.059 219 184z"/>
<path style="fill:#b0a0a0; stroke:none;" d="M220 184L220 185L223 185L220 184M300 184L301 185L300 184M311 184L314 187L311 184M322 184L323 185L322 184z"/>
<path style="fill:#685e5e; stroke:none;" d="M60.6667 185.333L61.3333 185.667L60.6667 185.333z"/>
<path style="fill:#b0a0a0; stroke:none;" d="M81.6667 185.333L82.3333 185.667L81.6667 185.333M219 185L219 302L220 302L220 221L219 185M321 185L322 186L321 185z"/>
<path style="fill:#685e5e; stroke:none;" d="M58.6667 186.333L59.3333 186.667L58.6667 186.333z"/>
<path style="fill:#b0a0a0; stroke:none;" d="M80 186L81 187L80 186z"/>
<path style="fill:#685e5e; stroke:none;" d="M179 186L180 187L179 186z"/>
<path style="fill:#b0a0a0; stroke:none;" d="M243 186L244 196L245 196L243 186M301 186L302 187L301 186M320 186L321 187L320 186M358 186L359 187L358 186z"/>
<path style="fill:#685e5e; stroke:none;" d="M57 187C58.5786 196.168 64.8062 206.18 72 212L57 187z"/>
<path style="fill:#b0a0a0; stroke:none;" d="M78.6667 187.333L79.3333 187.667L78.6667 187.333z"/>
<path style="fill:#685e5e; stroke:none;" d="M177.667 187.333L178.333 187.667L177.667 187.333M244 187L244 192L245 192L244 187z"/>
<path style="fill:#b0a0a0; stroke:none;" d="M302 187L303 188L302 187M314 187L315 188L314 187M319.333 187.667L319.667 188.333L319.333 187.667M357 187L358 188L357 187M76.6667 188.333L77.3333 188.667L76.6667 188.333z"/>
<path style="fill:#685e5e; stroke:none;" d="M176 188L177 189L176 188z"/>
<path style="fill:#b0a0a0; stroke:none;" d="M303.333 188.667L303.667 189.333L303.333 188.667M356 188L357 189L356 188M74 189L75 190L74 189M173 189L165 196L173 189z"/>
<path style="fill:#685e5e; stroke:none;" d="M173 191L176 189L173 191z"/>
<path style="fill:#b0a0a0; stroke:none;" d="M315 189L316 190L315 189M318 189L319 190L318 189M355 189L356 190L355 189M57 190L58 191L57 190M72.6667 190.333L73.3333 190.667L72.6667 190.333M100 190C100 196.443 102.001 206.719 98 212L98 213C102.991 209.764 102.152 195.128 100 190M297 190L297 199L298 199L297 190M304 190L305 191L304 190M316.667 190.333L317.333 190.667L316.667 190.333M354 190L353 192L355 192L354 190M71 191L72 192L71 191z"/>
<path style="fill:#685e5e; stroke:none;" d="M101 191L100 213C103.902 209.59 102.925 195.587 101 191M172 191L173 192L172 191z"/>
<path style="fill:#b0a0a0; stroke:none;" d="M58.3333 192.667L58.6667 193.333L58.3333 192.667M69.6667 192.333L70.3333 192.667L69.6667 192.333z"/>
<path style="fill:#685e5e; stroke:none;" d="M170.667 192.333L171.333 192.667L170.667 192.333z"/>
<path style="fill:#b0a0a0; stroke:none;" d="M305 192L306 193L305 192M352 192L353 193L352 192M68.3333 193.667L68.6667 194.333L68.3333 193.667z"/>
<path style="fill:#685e5e; stroke:none;" d="M169 193L170 194L169 193M245 193L245 197L246 197L245 193z"/>
<path style="fill:#b0a0a0; stroke:none;" d="M306.333 193.667L306.667 194.333L306.333 193.667M350 193L351 194L350 193z"/>
<path style="fill:#685e5e; stroke:none;" d="M167 194L168 195L167 194z"/>
<path style="fill:#b0a0a0; stroke:none;" d="M349 194L350 195L349 194M59 195L60 196L59 195M69 195L70 196L69 195z"/>
<path style="fill:#685e5e; stroke:none;" d="M166 195L167 196L166 195z"/>
<path style="fill:#b0a0a0; stroke:none;" d="M307 195L308 196L307 195z"/>
<path style="fill:#685e5e; stroke:none;" d="M346 195L347 196L346 195z"/>
<path style="fill:#b0a0a0; stroke:none;" d="M347.667 195.333L348.333 195.667L347.667 195.333M70 196L71 197L70 196M163 196L144 205L144 206L164 197L163 196z"/>
<path style="fill:#685e5e; stroke:none;" d="M164.667 196.333L165.333 196.667L164.667 196.333z"/>
<path style="fill:#b0a0a0; stroke:none;" d="M308.333 196.667L308.667 197.333L308.333 196.667z"/>
<path style="fill:#685e5e; stroke:none;" d="M340 198L340 199L345 197L340 198z"/>
<path style="fill:#b0a0a0; stroke:none;" d="M345.667 196.333L346.333 196.667L345.667 196.333M60 197L61 198L60 197M71.6667 197.333L72.3333 197.667L71.6667 197.333z"/>
<path style="fill:#685e5e; stroke:none;" d="M163 197L164 198L163 197z"/>
<path style="fill:#b0a0a0; stroke:none;" d="M245 197L245 200L246 200L245 197M344 197L345 198L344 197M61.3333 198.667L61.6667 199.333L61.3333 198.667M73 198L74 199L73 198z"/>
<path style="fill:#685e5e; stroke:none;" d="M161.667 198.333L162.333 198.667L161.667 198.333M246 198L249 223L250 223L246 198z"/>
<path style="fill:#b0a0a0; stroke:none;" d="M309.333 198.667L309.667 199.333L309.333 198.667M341.667 198.333L342.333 198.667L341.667 198.333M74 199L75 200L74 199z"/>
<path style="fill:#685e5e; stroke:none;" d="M159.667 199.333L160.333 199.667L159.667 199.333M297 199L297 211L298 211L297 199M338 199L339 200L338 199z"/>
<path style="fill:#b0a0a0; stroke:none;" d="M339.667 199.333L340.333 199.667L339.667 199.333M62 200L63 201L62 200M75 200L75 201L85 206L75 200z"/>
<path style="fill:#685e5e; stroke:none;" d="M143 200L143 207L147 207L147 206L144 206L143 200M158 200L159 201L158 200z"/>
<path style="fill:#b0a0a0; stroke:none;" d="M310 200L311 201L310 200z"/>
<path style="fill:#685e5e; stroke:none;" d="M335.667 200.333L336.333 200.667L335.667 200.333z"/>
<path style="fill:#b0a0a0; stroke:none;" d="M337.667 200.333L338.333 200.667L337.667 200.333M63.3333 201.667L63.6667 202.333L63.3333 201.667z"/>
<path style="fill:#685e5e; stroke:none;" d="M76 201L77 202L76 201M156 201L157 202L156 201z"/>
<path style="fill:#b0a0a0; stroke:none;" d="M334 201L334 202L337 202L334 201z"/>
<path style="fill:#685e5e; stroke:none;" d="M77.6667 202.333L78.3333 202.667L77.6667 202.333M154.667 202.333L155.333 202.667L154.667 202.333z"/>
<path style="fill:#b0a0a0; stroke:none;" d="M311 202L312 203L311 202M331 202L331 203L334 203L331 202M64.3333 203.667L64.6667 204.333L64.3333 203.667z"/>
<path style="fill:#685e5e; stroke:none;" d="M79.6667 203.333L80.3333 203.667L79.6667 203.333M151 203L151 204L154 204L151 203z"/>
<path style="fill:#b0a0a0; stroke:none;" d="M246 203L246 206L247 206L246 203M312.333 203.667L312.667 204.333L312.333 203.667M328 203L328 204L331 204L328 203z"/>
<path style="fill:#685e5e; stroke:none;" d="M81 204L84 206L81 204M149.667 204.333L150.333 204.667L149.667 204.333z"/>
<path style="fill:#b0a0a0; stroke:none;" d="M324 204L324 205L327 205L324 204M65 205L66 206L65 205z"/>
<path style="fill:#685e5e; stroke:none;" d="M147.667 205.333L148.333 205.667L147.667 205.333z"/>
<path style="fill:#b0a0a0; stroke:none;" d="M313 205L314 206L313 205M320 205L320 206L323 206L320 205M66 206L67 207L66 206z"/>
<path style="fill:#685e5e; stroke:none;" d="M84 206L84 207L95 212L95 211L84 206z"/>
<path style="fill:#b0a0a0; stroke:none;" d="M86 206L87 207L86 206M315.667 206.333L316.333 206.667L315.667 206.333M67 207L68 208L67 207M88.6667 207.333L89.3333 207.667L88.6667 207.333M68 208L69 209L68 208M90.6667 208.333L91.3333 208.667L90.6667 208.333z"/>
<path style="fill:#685e5e; stroke:none;" d="M160 218L160 219L180 209L180 215L181 215L181 208L160 218z"/>
<path style="fill:#b0a0a0; stroke:none;" d="M92.6667 209.333L93.3333 209.667L92.6667 209.333M179 209L179 213L180 213L179 209M298 209L298 215L299 215L298 209M94 210L95 211L94 210M70 211L71 212L70 211M95.6667 211.333L96.3333 211.667L95.6667 211.333M176.667 211.333L177.333 211.667L176.667 211.333M72 212L81 218L81 217L72 212z"/>
<path style="fill:#685e5e; stroke:none;" d="M73 212L74 213L73 212M96.6667 212.333L97.3333 212.667L96.6667 212.333z"/>
<path style="fill:#b0a0a0; stroke:none;" d="M175 212L176 213L175 212M247 212L247 216L248 216L247 212z"/>
<path style="fill:#685e5e; stroke:none;" d="M74 213L75 214L74 213z"/>
<path style="fill:#b0a0a0; stroke:none;" d="M173.667 213.333L174.333 213.667L173.667 213.333z"/>
<path style="fill:#685e5e; stroke:none;" d="M76 214L77 215L76 214z"/>
<path style="fill:#b0a0a0; stroke:none;" d="M171.667 214.333L172.333 214.667L171.667 214.333z"/>
<path style="fill:#685e5e; stroke:none;" d="M77.6667 215.333L78.3333 215.667L77.6667 215.333z"/>
<path style="fill:#b0a0a0; stroke:none;" d="M169.667 215.333L170.333 215.667L169.667 215.333M180 215L180 223L181 223L180 215z"/>
<path style="fill:#685e5e; stroke:none;" d="M298 215L298 224L299 224L298 215M79 216L80 217L79 216z"/>
<path style="fill:#b0a0a0; stroke:none;" d="M167.667 216.333L168.333 216.667L167.667 216.333z"/>
<path style="fill:#685e5e; stroke:none;" d="M181 216L181 289L182 289L182.09 235L181 216M81 217L81 218L97 225L97 224L81 217z"/>
<path style="fill:#b0a0a0; stroke:none;" d="M165.667 217.333L166.333 217.667L165.667 217.333M82 218L83 219L82 218M162.667 218.333L163.333 218.667L162.667 218.333M248 218L248 222L249 222L248 218M83.6667 219.333L84.3333 219.667L83.6667 219.333z"/>
<path style="fill:#685e5e; stroke:none;" d="M151 221L151 222L159 220L151 221z"/>
<path style="fill:#b0a0a0; stroke:none;" d="M159.667 219.333L160.333 219.667L159.667 219.333M85.6667 220.333L86.3333 220.667L85.6667 220.333M157.667 220.333L158.333 220.667L157.667 220.333M87.6667 221.333L88.3333 221.667L87.6667 221.333M154.667 221.333L155.333 221.667L154.667 221.333M89.6667 222.333L90.3333 222.667L89.6667 222.333z"/>
<path style="fill:#685e5e; stroke:none;" d="M155 311L153 313L153 314C159.439 312.613 145.722 303.6 145.083 299C142.589 281.039 144 262.141 144 244C144 237.205 140.865 223.655 150 223C140.09 219.162 143 236.511 143 242C143 258.407 141.438 275.73 143.576 292C144.76 301.015 145.089 307.656 155 311z"/>
<path style="fill:#b0a0a0; stroke:none;" d="M150 222L150 223L153 223L150 222M91 223L91 224L94 224L91 223M145 223L145 224L149 224L145 223M249 223L251 241L252 241L249 223M299 223L299 230L300 230L299 223M94.6667 224.333L95.3333 224.667L94.6667 224.333M144 224L144 291L145 291L145 245L144 224M96 225L96 226L99 227L96 225z"/>
<path style="fill:#685e5e; stroke:none;" d="M98 225L99 226L98 225M250 225L250 229L251 229L250 225M99 226L99 227L101 235L102 235L99 226z"/>
<path style="fill:#b0a0a0; stroke:none;" d="M100 227L101 228L100 227z"/>
<path style="fill:#685e5e; stroke:none;" d="M299 230L299 239L300 239L299 230z"/>
<path style="fill:#b0a0a0; stroke:none;" d="M300 231L300 244L301 244L300 231z"/>
<path style="fill:#685e5e; stroke:none;" d="M251 232L251 236L252 236L251 232M286 233L286 318L287 318L287 263L288 233L286 233z"/>
<path style="fill:#b0a0a0; stroke:none;" d="M287 234L292 246L293 246L287 234M101 235L101 270L102 270L101 235z"/>
<path style="fill:#685e5e; stroke:none;" d="M288 235L289 236L288 235M289 237L290 238L289 237M290 238L290 241L291 241L290 238z"/>
<path style="fill:#b0a0a0; stroke:none;" d="M181 239L181 271L182 271L181 239z"/>
<path style="fill:#685e5e; stroke:none;" d="M252 239L252 247L253 247L252 239M291.333 241.667L291.667 242.333L291.333 241.667M102 243L102 263L103 263L102 243M292.333 243.667L292.667 244.333L292.333 243.667M300 244L300 256L299 256L294 245L293 245L300 257L300 244z"/>
<path style="fill:#b0a0a0; stroke:none;" d="M301 245L301 256L302 256L301 245M242 246L241 250L242 250L245 249L244 246L242 246M252 247L252 251L253 251L252 247M293 247L294 248L293 247z"/>
<path style="fill:#685e5e; stroke:none;" d="M242 248L242 252L243 252L255 257L255 256L252 257L242 248z"/>
<path style="fill:#b0a0a0; stroke:none;" d="M246 249L247 250L246 249z"/>
<path style="fill:#685e5e; stroke:none;" d="M253 249L253 255L254 255L253 249z"/>
<path style="fill:#b0a0a0; stroke:none;" d="M294 249L295 250L294 249M247 250L248 251L247 250M248.333 251.667L248.667 252.333L248.333 251.667M295.333 251.667L295.667 252.333L295.333 251.667M242 252L244 268L245 268L242 252z"/>
<path style="fill:#685e5e; stroke:none;" d="M243 253L243 258L244 258L243 253z"/>
<path style="fill:#b0a0a0; stroke:none;" d="M249 253L250 254L249 253M296.333 253.667L296.667 254.333L296.333 253.667M250 254L251 255L250 254M252 255L252 257L254 257L254 255L252 255M297 255L298 256L297 255M298 256L299 257L298 256M300 256L301 257L300 256M299 257L300 258L299 257z"/>
<path style="fill:#685e5e; stroke:none;" d="M244 259L244 263L245 263L244 259M245 265L249 293L250 293L245 265z"/>
<path style="fill:#b0a0a0; stroke:none;" d="M245.333 269.667L245.667 270.333L245.333 269.667z"/>
<path style="fill:#685e5e; stroke:none;" d="M101 270C101 285.043 100.414 295.966 86 304L86 305C99.0373 300.057 106.57 283.275 101 270z"/>
<path style="fill:#b0a0a0; stroke:none;" d="M246 274L246 277L247 277L246 274M100 277L100 287L101 287L100 277M180 283L180 290L181 290L180 283M247 283L247 286L248 286L247 283M248 288L248 292L249 292L248 288M99.3333 289.667L99.6667 290.333L99.3333 289.667z"/>
<path style="fill:#685e5e; stroke:none;" d="M180 290L180 301L181 301L180 290z"/>
<path style="fill:#b0a0a0; stroke:none;" d="M98.3333 292.667L98.6667 293.333L98.3333 292.667M179 292L175 313L176 313C178.456 306.625 181.822 298.726 179 292M249 293L251 307L252 307L249 293M97 294L98 295L97 294z"/>
<path style="fill:#685e5e; stroke:none;" d="M250 294L250 298L251 298L250 294z"/>
<path style="fill:#b0a0a0; stroke:none;" d="M96.3333 295.667L96.6667 296.333L96.3333 295.667M95 297L96 298L95 297M92 300L95 298L92 300M91 300L92 301L91 300z"/>
<path style="fill:#685e5e; stroke:none;" d="M251 300L251 303L252 303L251 300z"/>
<path style="fill:#b0a0a0; stroke:none;" d="M89.6667 301.333L90.3333 301.667L89.6667 301.333M145 301L146 302L145 301z"/>
<path style="fill:#685e5e; stroke:none;" d="M273 301L272 312L273 312L273 303L274 303L279 313L280 313L273 301z"/>
<path style="fill:#b0a0a0; stroke:none;" d="M88 302L89 303L88 302z"/>
<path style="fill:#685e5e; stroke:none;" d="M179 302L179 306L180 306L179 302z"/>
<path style="fill:#b0a0a0; stroke:none;" d="M86.6667 303.333L87.3333 303.667L86.6667 303.333M146 303L147 304L146 303M273 303L273 310L274 310L273 303M84 310L86 305C82.3522 304.18 81.5244 307.805 84 310M147 304L148 305L147 304z"/>
<path style="fill:#685e5e; stroke:none;" d="M83 305L83 309L84 309L85 305L83 305z"/>
<path style="fill:#b0a0a0; stroke:none;" d="M148 305L149 306L148 305z"/>
<path style="fill:#685e5e; stroke:none;" d="M252 305L252 312L253 312L252 305z"/>
<path style="fill:#b0a0a0; stroke:none;" d="M149 306L150 307L149 306z"/>
<path style="fill:#685e5e; stroke:none;" d="M178 306L178 309L179 309L178 306z"/>
<path style="fill:#b0a0a0; stroke:none;" d="M220 306L220 309L221 309L220 306M275 306L276 307L275 306M150 307L151 308L150 307M152 308L153 309L152 308M276.333 308.667L276.667 309.333L276.333 308.667z"/>
<path style="fill:#685e5e; stroke:none;" d="M84 309L84 310L140 311L122 309.985L84 309z"/>
<path style="fill:#b0a0a0; stroke:none;" d="M153.667 309.333L154.333 309.667L153.667 309.333z"/>
<path style="fill:#685e5e; stroke:none;" d="M177.333 309.667L177.667 310.333L177.333 309.667z"/>
<path style="fill:#b0a0a0; stroke:none;" d="M93 310L93 311L115 311L93 310M155 310L156 311L155 310M277.333 310.667L277.667 311.333L277.333 310.667M135 311L135 312L141 312L135 311z"/>
<path style="fill:#685e5e; stroke:none;" d="M141 311L141 312L147 312L141 311z"/>
<path style="fill:#b0a0a0; stroke:none;" d="M156 311L156 314L157 314L156 311z"/>
<path style="fill:#685e5e; stroke:none;" d="M176.333 311.667L176.667 312.333L176.333 311.667z"/>
<path style="fill:#b0a0a0; stroke:none;" d="M221.333 311.667L221.667 312.333L221.333 311.667M146.667 312.333L147.333 312.667L146.667 312.333z"/>
<path style="fill:#685e5e; stroke:none;" d="M148 312L148 313L151 313L148 312z"/>
<path style="fill:#b0a0a0; stroke:none;" d="M252 312L252 315L253 315L252 312M272 312L270 354L271 354C271.008 341.511 276.934 323.759 272 312M278 312L279 313L278 312M149 313L149 314L153 314L149 313z"/>
<path style="fill:#685e5e; stroke:none;" d="M175 313L164 323C165.688 331.097 172.649 328.524 179 328.09C193.391 327.104 207.641 330 222 330L222 329L181 327.004L167.06 326.411L175 313M253 313L258 348L259 348C258.545 337.401 257.619 322.609 253 313z"/>
<path style="fill:#b0a0a0; stroke:none;" d="M279 313L280 317L281 317L279 313M153 314L153 315L156 315L153 314M174 314L175 315L174 314z"/>
<path style="fill:#685e5e; stroke:none;" d="M271 314L271 332L272 332L271 314M280 314L281 315L280 314z"/>
<path style="fill:#b0a0a0; stroke:none;" d="M173 315L174 316L173 315M222 315L223 316L222 315M172 316L173 317L172 316M223.333 316.667L223.667 317.333L223.333 316.667z"/>
<path style="fill:#685e5e; stroke:none;" d="M281 316C282.213 319.452 283.259 321.062 287 321L287 320L284 321L281 316z"/>
<path style="fill:#b0a0a0; stroke:none;" d="M171 317L172 318L171 317M170 318L171 319L170 318M224.333 318.667L224.667 319.333L224.333 318.667M253 318L253 322L254 322L253 318M281 318L282 319L281 318M286.333 318.667L286.667 319.333L286.333 318.667M169 319L170 320L169 319M167.667 320.333L168.333 320.667L167.667 320.333M225.333 320.667L225.667 321.333L225.333 320.667M282 320L283 321L282 320M166 321L167 322L166 321M283 321L284 322L283 321M286 321L284 322L284 323L286 321M164.667 322.333L165.333 322.667L164.667 322.333M226 322L227 323L226 322M163.333 323.667L163.667 324.333L163.333 323.667M227 323L228 324L227 323M228 324L229 325L228 324M254 324L254 328L255 328L254 324M230 325L231 326L230 325M164.333 326.667L164.667 327.333L164.333 326.667M231.667 326.333L232.333 326.667L231.667 326.333M233 327L234 328L233 327M165 328L166 329L165 328M175 328L175 329L198 329L175 328M166 329L166 330L169 330L166 329M205 329L205 330L211 330L205 329M255 329L255 333L256 333L255 329M218 330L218 331L223 331L218 330z"/>
<path style="fill:#685e5e; stroke:none;" d="M223 330L223 331L228 331L223 330z"/>
<path style="fill:#b0a0a0; stroke:none;" d="M233 330L229 332L229 333L233 330M224 331L224 332L229 332L224 331M256 335L256 341L257 341L256 335z"/>
<path style="fill:#685e5e; stroke:none;" d="M270 335L270 344L271 344L270 335z"/>
<path style="fill:#b0a0a0; stroke:none;" d="M257 343L257 347L258 347L257 343M258 348L258 353L259 353L258 348z"/>
<path style="fill:#685e5e; stroke:none;" d="M259 349L260 359L261 359L259 349M269 349L269 357L270 357L269 349z"/>
<path style="fill:#b0a0a0; stroke:none;" d="M259 354L259 359L260 359L259 354M269 357L269 361L270 361L269 357M260 359L262 378L263 378L260 359z"/>
<path style="fill:#685e5e; stroke:none;" d="M261 360L261 365L262 365L261 360M268 360L268 368L269 368L268 360M262 367L262 373L263 373L262 367z"/>
<path style="fill:#b0a0a0; stroke:none;" d="M268 368L268 373L269 373L268 368z"/>
<path style="fill:#685e5e; stroke:none;" d="M267 369L266 385L265 385L265 380L264 380L267 388L267 369M263 375L263 379L264 379L263 375z"/>
<path style="fill:#b0a0a0; stroke:none;" d="M263 379L263 382L264 382L263 379M267 380L267 387L268 387L267 380z"/>
<path style="fill:#ffffff; stroke:none;" d="M32 384L33 385L32 384M388 384L389 385L388 384z"/>
<path style="fill:#b0a0a0; stroke:none;" d="M264 385L264 388L265 388L264 385M265.667 388.333L266.333 388.667L265.667 388.333z"/>
<path style="fill:#ffffff; stroke:none;" d="M42 394L43 395L42 394M378 394L379 395L378 394z"/>
</svg>
